<svg xmlns="http://www.w3.org/2000/svg" xmlns:xlink="http://www.w3.org/1999/xlink" zoomAndPan="magnify" viewBox="374 241 691 328" preserveAspectRatio="xMidYMid meet" version="1.0"><defs><clipPath id="a4507ee182"><path d="M 387.867188 254.675781 L 1050.867188 254.675781 L 1050.867188 554.675781 L 387.867188 554.675781 Z M 387.867188 254.675781 " clip-rule="nonzero"/></clipPath><clipPath id="6c1d96f515"><path d="M 675 254.675781 L 751 254.675781 L 751 368 L 675 368 Z M 675 254.675781 " clip-rule="nonzero"/></clipPath><clipPath id="b1c93df23f"><path d="M 387.867188 479 L 1050.867188 479 L 1050.867188 554.675781 L 387.867188 554.675781 Z M 387.867188 479 " clip-rule="nonzero"/></clipPath><clipPath id="abe7d763eb"><path d="M 738 254.675781 L 789 254.675781 L 789 268 L 738 268 Z M 738 254.675781 " clip-rule="nonzero"/></clipPath></defs><g clip-path="url(#a4507ee182)"><path fill="#777c77" d="M 1038.449219 542.398438 L 1038.449219 517.378906 L 1025.9375 517.378906 L 1025.9375 492.359375 L 1013.429688 492.359375 L 1013.429688 479.851562 L 1000.917969 479.851562 L 1000.917969 467.339844 L 975.898438 467.339844 L 975.898438 454.832031 L 938.371094 454.832031 L 938.371094 467.339844 L 913.351562 467.339844 L 913.351562 479.851562 L 900.839844 479.851562 L 900.839844 442.320312 L 888.332031 442.320312 L 888.332031 404.792969 L 875.820312 404.792969 L 875.820312 392.28125 L 850.800781 392.28125 L 850.800781 379.773438 L 825.78125 379.773438 L 825.78125 354.753906 L 838.292969 354.753906 L 838.292969 342.242188 L 850.800781 342.242188 L 850.800781 317.222656 L 838.292969 317.222656 L 838.292969 304.714844 L 825.78125 304.714844 L 825.78125 279.695312 L 813.273438 279.695312 L 813.273438 267.183594 L 788.253906 267.183594 L 788.253906 254.675781 L 713.195312 254.675781 L 713.195312 267.183594 L 675.664062 267.183594 L 675.664062 279.695312 L 663.15625 279.695312 L 663.15625 304.714844 L 650.644531 304.714844 L 650.644531 317.222656 L 613.117188 317.222656 L 613.117188 329.734375 L 588.097656 329.734375 L 588.097656 342.242188 L 575.585938 342.242188 L 575.585938 379.773438 L 563.078125 379.773438 L 563.078125 367.261719 L 525.546875 367.261719 L 525.546875 379.773438 L 500.527344 379.773438 L 500.527344 392.28125 L 488.019531 392.28125 L 488.019531 404.792969 L 475.507812 404.792969 L 475.507812 442.320312 L 463 442.320312 L 463 454.832031 L 450.488281 454.832031 L 450.488281 467.339844 L 437.980469 467.339844 L 437.980469 504.871094 L 450.488281 504.871094 L 450.488281 517.378906 L 425.46875 517.378906 L 425.46875 529.890625 L 400.449219 529.890625 L 400.449219 542.398438 L 387.941406 542.398438 L 387.941406 554.910156 L 1050.957031 554.910156 L 1050.957031 542.398438 Z M 1038.449219 542.398438 " fill-opacity="1" fill-rule="nonzero"/></g><path fill="#c8c8bc" d="M 488.019531 404.792969 L 500.527344 404.792969 L 500.527344 417.300781 L 488.019531 417.300781 Z M 488.019531 404.792969 " fill-opacity="1" fill-rule="nonzero"/><path fill="#c8c8bc" d="M 513.039062 392.28125 L 525.546875 392.28125 L 525.546875 379.773438 L 500.527344 379.773438 L 500.527344 404.792969 L 513.039062 404.792969 Z M 513.039062 392.28125 " fill-opacity="1" fill-rule="nonzero"/><path fill="#c8c8bc" d="M 500.527344 417.300781 L 500.527344 429.8125 L 525.546875 429.8125 L 525.546875 404.792969 L 513.039062 404.792969 L 513.039062 417.300781 Z M 500.527344 417.300781 " fill-opacity="1" fill-rule="nonzero"/><path fill="#c8c8bc" d="M 538.058594 442.320312 L 538.058594 454.832031 L 563.078125 454.832031 L 563.078125 442.320312 L 550.566406 442.320312 L 550.566406 429.8125 L 525.546875 429.8125 L 525.546875 442.320312 Z M 538.058594 442.320312 " fill-opacity="1" fill-rule="nonzero"/><path fill="#c8c8bc" d="M 463 454.832031 L 475.507812 454.832031 L 475.507812 467.339844 L 463 467.339844 Z M 463 454.832031 " fill-opacity="1" fill-rule="nonzero"/><path fill="#c8c8bc" d="M 475.507812 504.871094 L 475.507812 492.359375 L 463 492.359375 L 463 467.339844 L 450.488281 467.339844 L 450.488281 504.871094 L 463 504.871094 L 463 517.378906 L 488.019531 517.378906 L 488.019531 504.871094 Z M 475.507812 504.871094 " fill-opacity="1" fill-rule="nonzero"/><path fill="#c8c8bc" d="M 488.019531 517.378906 L 513.039062 517.378906 L 513.039062 529.890625 L 488.019531 529.890625 Z M 488.019531 517.378906 " fill-opacity="1" fill-rule="nonzero"/><path fill="#c8c8bc" d="M 575.585938 479.851562 L 563.078125 479.851562 L 563.078125 517.378906 L 550.566406 517.378906 L 550.566406 529.890625 L 513.039062 529.890625 L 513.039062 542.398438 L 575.585938 542.398438 L 575.585938 529.890625 L 588.097656 529.890625 L 588.097656 517.378906 L 575.585938 517.378906 Z M 575.585938 479.851562 " fill-opacity="1" fill-rule="nonzero"/><path fill="#c8c8bc" d="M 425.46875 517.378906 L 463 517.378906 L 463 529.890625 L 425.46875 529.890625 Z M 425.46875 517.378906 " fill-opacity="1" fill-rule="nonzero"/><path fill="#c8c8bc" d="M 400.449219 529.890625 L 425.46875 529.890625 L 425.46875 542.398438 L 400.449219 542.398438 Z M 400.449219 529.890625 " fill-opacity="1" fill-rule="nonzero"/><path fill="#c8c8bc" d="M 475.507812 467.339844 L 488.019531 467.339844 L 488.019531 479.851562 L 475.507812 479.851562 Z M 475.507812 467.339844 " fill-opacity="1" fill-rule="nonzero"/><path fill="#c8c8bc" d="M 513.039062 504.871094 L 525.546875 504.871094 L 525.546875 517.378906 L 513.039062 517.378906 Z M 513.039062 504.871094 " fill-opacity="1" fill-rule="nonzero"/><path fill="#c8c8bc" d="M 588.097656 342.242188 L 600.605469 342.242188 L 600.605469 379.773438 L 588.097656 379.773438 Z M 588.097656 342.242188 " fill-opacity="1" fill-rule="nonzero"/><path fill="#c8c8bc" d="M 600.605469 329.734375 L 613.117188 329.734375 L 613.117188 342.242188 L 600.605469 342.242188 Z M 600.605469 329.734375 " fill-opacity="1" fill-rule="nonzero"/><path fill="#c8c8bc" d="M 575.585938 379.773438 L 588.097656 379.773438 L 588.097656 404.792969 L 575.585938 404.792969 Z M 575.585938 379.773438 " fill-opacity="1" fill-rule="nonzero"/><path fill="#c8c8bc" d="M 588.097656 404.792969 L 625.625 404.792969 L 625.625 417.300781 L 588.097656 417.300781 Z M 588.097656 404.792969 " fill-opacity="1" fill-rule="nonzero"/><path fill="#c8c8bc" d="M 625.625 417.300781 L 663.15625 417.300781 L 663.15625 429.8125 L 625.625 429.8125 Z M 625.625 417.300781 " fill-opacity="1" fill-rule="nonzero"/><path fill="#c8c8bc" d="M 625.625 392.28125 L 638.136719 392.28125 L 638.136719 404.792969 L 625.625 404.792969 Z M 625.625 392.28125 " fill-opacity="1" fill-rule="nonzero"/><path fill="#c8c8bc" d="M 663.15625 429.8125 L 688.175781 429.8125 L 688.175781 442.320312 L 663.15625 442.320312 Z M 663.15625 429.8125 " fill-opacity="1" fill-rule="nonzero"/><path fill="#c8c8bc" d="M 675.664062 404.792969 L 688.175781 404.792969 L 688.175781 417.300781 L 675.664062 417.300781 Z M 675.664062 404.792969 " fill-opacity="1" fill-rule="nonzero"/><path fill="#c8c8bc" d="M 600.605469 517.378906 L 625.625 517.378906 L 625.625 529.890625 L 600.605469 529.890625 Z M 600.605469 517.378906 " fill-opacity="1" fill-rule="nonzero"/><path fill="#c8c8bc" d="M 600.605469 454.832031 L 625.625 454.832031 L 625.625 467.339844 L 600.605469 467.339844 Z M 600.605469 454.832031 " fill-opacity="1" fill-rule="nonzero"/><path fill="#c8c8bc" d="M 613.117188 492.359375 L 613.117188 479.851562 L 600.605469 479.851562 L 600.605469 467.339844 L 588.097656 467.339844 L 588.097656 517.378906 L 600.605469 517.378906 L 600.605469 492.359375 Z M 613.117188 492.359375 " fill-opacity="1" fill-rule="nonzero"/><path fill="#c8c8bc" d="M 675.664062 467.339844 L 688.175781 467.339844 L 688.175781 479.851562 L 675.664062 479.851562 Z M 675.664062 467.339844 " fill-opacity="1" fill-rule="nonzero"/><path fill="#c8c8bc" d="M 713.195312 504.871094 L 725.703125 504.871094 L 725.703125 517.378906 L 713.195312 517.378906 Z M 713.195312 504.871094 " fill-opacity="1" fill-rule="nonzero"/><g clip-path="url(#6c1d96f515)"><path fill="#c8c8bc" d="M 688.175781 354.753906 L 700.683594 354.753906 L 700.683594 367.261719 L 750.722656 367.261719 L 750.722656 354.753906 L 713.195312 354.753906 L 713.195312 329.734375 L 700.683594 329.734375 L 700.683594 304.714844 L 713.195312 304.714844 L 713.195312 279.695312 L 725.703125 279.695312 L 725.703125 267.183594 L 738.214844 267.183594 L 738.214844 254.675781 L 713.195312 254.675781 L 713.195312 267.183594 L 700.683594 267.183594 L 700.683594 279.695312 L 688.175781 279.695312 L 688.175781 304.714844 L 675.664062 304.714844 L 675.664062 329.734375 L 688.175781 329.734375 Z M 688.175781 354.753906 " fill-opacity="1" fill-rule="nonzero"/></g><path fill="#c8c8bc" d="M 750.722656 342.242188 L 800.761719 342.242188 L 800.761719 354.753906 L 750.722656 354.753906 Z M 750.722656 342.242188 " fill-opacity="1" fill-rule="nonzero"/><path fill="#c8c8bc" d="M 813.273438 354.753906 L 825.78125 354.753906 L 825.78125 367.261719 L 813.273438 367.261719 Z M 813.273438 354.753906 " fill-opacity="1" fill-rule="nonzero"/><path fill="#c8c8bc" d="M 738.214844 329.734375 L 750.722656 329.734375 L 750.722656 342.242188 L 738.214844 342.242188 Z M 738.214844 329.734375 " fill-opacity="1" fill-rule="nonzero"/><path fill="#c8c8bc" d="M 763.234375 492.359375 L 763.234375 479.851562 L 750.722656 479.851562 L 750.722656 454.832031 L 738.214844 454.832031 L 738.214844 417.300781 L 750.722656 417.300781 L 750.722656 392.28125 L 775.742188 392.28125 L 775.742188 379.773438 L 800.761719 379.773438 L 800.761719 367.261719 L 763.234375 367.261719 L 763.234375 379.773438 L 738.214844 379.773438 L 738.214844 392.28125 L 725.703125 392.28125 L 725.703125 417.300781 L 713.195312 417.300781 L 713.195312 454.832031 L 725.703125 454.832031 L 725.703125 479.851562 L 738.214844 479.851562 L 738.214844 492.359375 L 750.722656 492.359375 L 750.722656 504.871094 L 800.761719 504.871094 L 800.761719 492.359375 Z M 763.234375 492.359375 " fill-opacity="1" fill-rule="nonzero"/><path fill="#c8c8bc" d="M 825.78125 479.851562 L 813.273438 479.851562 L 813.273438 467.339844 L 800.761719 467.339844 L 800.761719 492.359375 L 825.78125 492.359375 Z M 825.78125 479.851562 " fill-opacity="1" fill-rule="nonzero"/><path fill="#c8c8bc" d="M 913.351562 479.851562 L 925.859375 479.851562 L 925.859375 517.378906 L 913.351562 517.378906 Z M 913.351562 479.851562 " fill-opacity="1" fill-rule="nonzero"/><path fill="#c8c8bc" d="M 925.859375 467.339844 L 938.371094 467.339844 L 938.371094 479.851562 L 925.859375 479.851562 Z M 925.859375 467.339844 " fill-opacity="1" fill-rule="nonzero"/><path fill="#c8c8bc" d="M 925.859375 517.378906 L 950.878906 517.378906 L 950.878906 529.890625 L 925.859375 529.890625 Z M 925.859375 517.378906 " fill-opacity="1" fill-rule="nonzero"/><path fill="#c8c8bc" d="M 950.878906 529.890625 L 1013.429688 529.890625 L 1013.429688 542.398438 L 950.878906 542.398438 Z M 950.878906 529.890625 " fill-opacity="1" fill-rule="nonzero"/><path fill="#c8c8bc" d="M 950.878906 504.871094 L 963.390625 504.871094 L 963.390625 517.378906 L 950.878906 517.378906 Z M 950.878906 504.871094 " fill-opacity="1" fill-rule="nonzero"/><path fill="#c8c8bc" d="M 788.253906 454.832031 L 800.761719 454.832031 L 800.761719 467.339844 L 788.253906 467.339844 Z M 788.253906 454.832031 " fill-opacity="1" fill-rule="nonzero"/><path fill="#c8c8bc" d="M 788.253906 429.8125 L 775.742188 429.8125 L 775.742188 454.832031 L 788.253906 454.832031 Z M 788.253906 429.8125 " fill-opacity="1" fill-rule="nonzero"/><path fill="#c8c8bc" d="M 788.253906 417.300781 L 800.761719 417.300781 L 800.761719 429.8125 L 788.253906 429.8125 Z M 788.253906 417.300781 " fill-opacity="1" fill-rule="nonzero"/><path fill="#c8c8bc" d="M 813.273438 454.832031 L 825.78125 454.832031 L 825.78125 467.339844 L 813.273438 467.339844 Z M 813.273438 454.832031 " fill-opacity="1" fill-rule="nonzero"/><path fill="#c8c8bc" d="M 825.78125 442.320312 L 838.292969 442.320312 L 838.292969 454.832031 L 825.78125 454.832031 Z M 825.78125 442.320312 " fill-opacity="1" fill-rule="nonzero"/><path fill="#c8c8bc" d="M 625.625 504.871094 L 638.136719 504.871094 L 638.136719 517.378906 L 625.625 517.378906 Z M 625.625 504.871094 " fill-opacity="1" fill-rule="nonzero"/><path fill="#c8c8bc" d="M 638.136719 479.851562 L 650.644531 479.851562 L 650.644531 504.871094 L 638.136719 504.871094 Z M 638.136719 479.851562 " fill-opacity="1" fill-rule="nonzero"/><path fill="#c8c8bc" d="M 650.644531 467.339844 L 663.15625 467.339844 L 663.15625 479.851562 L 650.644531 479.851562 Z M 650.644531 467.339844 " fill-opacity="1" fill-rule="nonzero"/><path fill="#c8c8bc" d="M 650.644531 504.871094 L 675.664062 504.871094 L 675.664062 517.378906 L 650.644531 517.378906 Z M 650.644531 504.871094 " fill-opacity="1" fill-rule="nonzero"/><path fill="#c8c8bc" d="M 675.664062 492.359375 L 688.175781 492.359375 L 688.175781 504.871094 L 675.664062 504.871094 Z M 675.664062 492.359375 " fill-opacity="1" fill-rule="nonzero"/><path fill="#c8c8bc" d="M 875.820312 504.871094 L 875.820312 517.378906 L 850.800781 517.378906 L 850.800781 529.890625 L 813.273438 529.890625 L 813.273438 517.378906 L 825.78125 517.378906 L 825.78125 504.871094 L 800.761719 504.871094 L 800.761719 529.890625 L 625.625 529.890625 L 625.625 542.398438 L 900.839844 542.398438 L 900.839844 529.890625 L 888.332031 529.890625 L 888.332031 517.378906 L 900.839844 517.378906 L 900.839844 504.871094 Z M 875.820312 504.871094 " fill-opacity="1" fill-rule="nonzero"/><path fill="#c8c8bc" d="M 863.3125 492.359375 L 875.820312 492.359375 L 875.820312 504.871094 L 863.3125 504.871094 Z M 863.3125 492.359375 " fill-opacity="1" fill-rule="nonzero"/><path fill="#c8c8bc" d="M 888.332031 479.851562 L 900.839844 479.851562 L 900.839844 492.359375 L 888.332031 492.359375 Z M 888.332031 479.851562 " fill-opacity="1" fill-rule="nonzero"/><path fill="#c8c8bc" d="M 825.78125 492.359375 L 838.292969 492.359375 L 838.292969 504.871094 L 825.78125 504.871094 Z M 825.78125 492.359375 " fill-opacity="1" fill-rule="nonzero"/><g clip-path="url(#b1c93df23f)"><path fill="#696867" d="M 1025.9375 542.398438 L 1025.9375 529.890625 L 1013.429688 529.890625 L 1013.429688 542.398438 L 950.878906 542.398438 L 950.878906 529.890625 L 925.859375 529.890625 L 925.859375 517.378906 L 913.351562 517.378906 L 913.351562 479.851562 L 900.839844 479.851562 L 900.839844 517.378906 L 888.332031 517.378906 L 888.332031 529.890625 L 900.839844 529.890625 L 900.839844 542.398438 L 813.273438 542.398438 L 813.273438 529.890625 L 800.761719 529.890625 L 800.761719 517.378906 L 813.273438 517.378906 L 813.273438 504.871094 L 825.78125 504.871094 L 825.78125 492.359375 L 800.761719 492.359375 L 800.761719 504.871094 L 750.722656 504.871094 L 750.722656 517.378906 L 775.742188 517.378906 L 775.742188 529.890625 L 788.253906 529.890625 L 788.253906 542.398438 L 625.625 542.398438 L 625.625 529.890625 L 600.605469 529.890625 L 600.605469 517.378906 L 588.097656 517.378906 L 588.097656 529.890625 L 575.585938 529.890625 L 575.585938 542.398438 L 513.039062 542.398438 L 513.039062 529.890625 L 488.019531 529.890625 L 488.019531 517.378906 L 463 517.378906 L 463 529.890625 L 475.507812 529.890625 L 475.507812 542.398438 L 387.941406 542.398438 L 387.941406 554.910156 L 1050.957031 554.910156 L 1050.957031 542.398438 Z M 1025.9375 542.398438 " fill-opacity="1" fill-rule="nonzero"/></g><path fill="#696867" d="M 563.078125 379.773438 L 575.585938 379.773438 L 575.585938 404.792969 L 563.078125 404.792969 Z M 563.078125 379.773438 " fill-opacity="1" fill-rule="nonzero"/><path fill="#696867" d="M 575.585938 404.792969 L 588.097656 404.792969 L 588.097656 417.300781 L 575.585938 417.300781 Z M 575.585938 404.792969 " fill-opacity="1" fill-rule="nonzero"/><path fill="#696867" d="M 575.585938 342.242188 L 588.097656 342.242188 L 588.097656 379.773438 L 575.585938 379.773438 Z M 575.585938 342.242188 " fill-opacity="1" fill-rule="nonzero"/><path fill="#696867" d="M 588.097656 329.734375 L 600.605469 329.734375 L 600.605469 342.242188 L 588.097656 342.242188 Z M 588.097656 329.734375 " fill-opacity="1" fill-rule="nonzero"/><path fill="#696867" d="M 913.351562 467.339844 L 925.859375 467.339844 L 925.859375 479.851562 L 913.351562 479.851562 Z M 913.351562 467.339844 " fill-opacity="1" fill-rule="nonzero"/><path fill="#696867" d="M 688.175781 354.753906 L 688.175781 329.734375 L 675.664062 329.734375 L 675.664062 304.714844 L 688.175781 304.714844 L 688.175781 279.695312 L 700.683594 279.695312 L 700.683594 267.183594 L 675.664062 267.183594 L 675.664062 279.695312 L 663.15625 279.695312 L 663.15625 304.714844 L 650.644531 304.714844 L 650.644531 329.734375 L 663.15625 329.734375 L 663.15625 354.753906 L 675.664062 354.753906 L 675.664062 367.261719 L 700.683594 367.261719 L 700.683594 354.753906 Z M 688.175781 354.753906 " fill-opacity="1" fill-rule="nonzero"/><path fill="#696867" d="M 437.980469 467.339844 L 450.488281 467.339844 L 450.488281 504.871094 L 437.980469 504.871094 Z M 437.980469 467.339844 " fill-opacity="1" fill-rule="nonzero"/><path fill="#696867" d="M 450.488281 454.832031 L 463 454.832031 L 463 467.339844 L 450.488281 467.339844 Z M 450.488281 454.832031 " fill-opacity="1" fill-rule="nonzero"/><path fill="#696867" d="M 450.488281 504.871094 L 463 504.871094 L 463 517.378906 L 450.488281 517.378906 Z M 450.488281 504.871094 " fill-opacity="1" fill-rule="nonzero"/><path fill="#696867" d="M 525.546875 442.320312 L 538.058594 442.320312 L 538.058594 454.832031 L 525.546875 454.832031 Z M 525.546875 442.320312 " fill-opacity="1" fill-rule="nonzero"/><path fill="#696867" d="M 800.761719 367.261719 L 825.78125 367.261719 L 825.78125 379.773438 L 800.761719 379.773438 Z M 800.761719 367.261719 " fill-opacity="1" fill-rule="nonzero"/><path fill="#696867" d="M 825.78125 479.851562 L 838.292969 479.851562 L 838.292969 492.359375 L 825.78125 492.359375 Z M 825.78125 479.851562 " fill-opacity="1" fill-rule="nonzero"/><path fill="#696867" d="M 588.097656 467.339844 L 600.605469 467.339844 L 600.605469 454.832031 L 625.625 454.832031 L 625.625 442.320312 L 663.15625 442.320312 L 663.15625 429.8125 L 625.625 429.8125 L 625.625 417.300781 L 588.097656 417.300781 L 588.097656 429.8125 L 600.605469 429.8125 L 600.605469 442.320312 L 588.097656 442.320312 L 588.097656 454.832031 L 575.585938 454.832031 L 575.585938 467.339844 L 563.078125 467.339844 L 563.078125 479.851562 L 575.585938 479.851562 L 575.585938 517.378906 L 588.097656 517.378906 Z M 588.097656 467.339844 " fill-opacity="1" fill-rule="nonzero"/><path fill="#696867" d="M 488.019531 392.28125 L 500.527344 392.28125 L 500.527344 404.792969 L 488.019531 404.792969 Z M 488.019531 392.28125 " fill-opacity="1" fill-rule="nonzero"/><path fill="#696867" d="M 688.175781 454.832031 L 688.175781 467.339844 L 700.683594 467.339844 L 700.683594 479.851562 L 713.195312 479.851562 L 713.195312 492.359375 L 725.703125 492.359375 L 725.703125 504.871094 L 750.722656 504.871094 L 750.722656 492.359375 L 738.214844 492.359375 L 738.214844 479.851562 L 725.703125 479.851562 L 725.703125 454.832031 L 713.195312 454.832031 L 713.195312 417.300781 L 725.703125 417.300781 L 725.703125 392.28125 L 738.214844 392.28125 L 738.214844 379.773438 L 763.234375 379.773438 L 763.234375 367.261719 L 800.761719 367.261719 L 800.761719 354.753906 L 750.722656 354.753906 L 750.722656 367.261719 L 700.683594 367.261719 L 700.683594 404.792969 L 688.175781 404.792969 L 688.175781 442.320312 L 663.15625 442.320312 L 663.15625 454.832031 Z M 688.175781 454.832031 " fill-opacity="1" fill-rule="nonzero"/><path fill="#696867" d="M 488.019531 454.832031 L 488.019531 442.320312 L 525.546875 442.320312 L 525.546875 429.8125 L 500.527344 429.8125 L 500.527344 417.300781 L 488.019531 417.300781 L 488.019531 404.792969 L 475.507812 404.792969 L 475.507812 442.320312 L 463 442.320312 L 463 454.832031 Z M 488.019531 454.832031 " fill-opacity="1" fill-rule="nonzero"/><g clip-path="url(#abe7d763eb)"><path fill="#696867" d="M 738.214844 254.675781 L 788.253906 254.675781 L 788.253906 267.183594 L 738.214844 267.183594 Z M 738.214844 254.675781 " fill-opacity="1" fill-rule="nonzero"/></g><path fill="#696867" d="M 788.253906 267.183594 L 813.273438 267.183594 L 813.273438 279.695312 L 788.253906 279.695312 Z M 788.253906 267.183594 " fill-opacity="1" fill-rule="nonzero"/><path fill="#696867" d="M 775.742188 279.695312 L 788.253906 279.695312 L 788.253906 292.203125 L 775.742188 292.203125 Z M 775.742188 279.695312 " fill-opacity="1" fill-rule="nonzero"/><path fill="#696867" d="M 813.273438 279.695312 L 825.78125 279.695312 L 825.78125 304.714844 L 813.273438 304.714844 Z M 813.273438 279.695312 " fill-opacity="1" fill-rule="nonzero"/><path fill="#696867" d="M 800.761719 304.714844 L 813.273438 304.714844 L 813.273438 317.222656 L 800.761719 317.222656 Z M 800.761719 304.714844 " fill-opacity="1" fill-rule="nonzero"/><path fill="#696867" d="M 800.761719 292.203125 L 813.273438 292.203125 L 813.273438 304.714844 L 800.761719 304.714844 Z M 800.761719 292.203125 " fill-opacity="1" fill-rule="nonzero"/><path fill="#696867" d="M 763.234375 267.183594 L 775.742188 267.183594 L 775.742188 279.695312 L 763.234375 279.695312 Z M 763.234375 267.183594 " fill-opacity="1" fill-rule="nonzero"/><path fill="#696867" d="M 750.722656 279.695312 L 763.234375 279.695312 L 763.234375 292.203125 L 750.722656 292.203125 Z M 750.722656 279.695312 " fill-opacity="1" fill-rule="nonzero"/><path fill="#696867" d="M 725.703125 267.183594 L 738.214844 267.183594 L 738.214844 279.695312 L 725.703125 279.695312 Z M 725.703125 267.183594 " fill-opacity="1" fill-rule="nonzero"/><path fill="#696867" d="M 825.78125 317.222656 L 838.292969 317.222656 L 838.292969 329.734375 L 825.78125 329.734375 Z M 825.78125 317.222656 " fill-opacity="1" fill-rule="nonzero"/><path fill="#696867" d="M 813.273438 329.734375 L 825.78125 329.734375 L 825.78125 342.242188 L 813.273438 342.242188 Z M 813.273438 329.734375 " fill-opacity="1" fill-rule="nonzero"/><path fill="#696867" d="M 713.195312 279.695312 L 725.703125 279.695312 L 725.703125 292.203125 L 713.195312 292.203125 Z M 713.195312 279.695312 " fill-opacity="1" fill-rule="nonzero"/><path fill="#696867" d="M 825.78125 304.714844 L 838.292969 304.714844 L 838.292969 317.222656 L 825.78125 317.222656 Z M 825.78125 304.714844 " fill-opacity="1" fill-rule="nonzero"/><path fill="#696867" d="M 838.292969 317.222656 L 850.800781 317.222656 L 850.800781 342.242188 L 838.292969 342.242188 Z M 838.292969 317.222656 " fill-opacity="1" fill-rule="nonzero"/><path fill="#696867" d="M 825.78125 342.242188 L 838.292969 342.242188 L 838.292969 354.753906 L 825.78125 354.753906 Z M 825.78125 342.242188 " fill-opacity="1" fill-rule="nonzero"/><path fill="#696867" d="M 825.78125 379.773438 L 850.800781 379.773438 L 850.800781 392.28125 L 825.78125 392.28125 Z M 825.78125 379.773438 " fill-opacity="1" fill-rule="nonzero"/><path fill="#696867" d="M 850.800781 392.28125 L 875.820312 392.28125 L 875.820312 404.792969 L 850.800781 404.792969 Z M 850.800781 392.28125 " fill-opacity="1" fill-rule="nonzero"/><path fill="#696867" d="M 875.820312 404.792969 L 888.332031 404.792969 L 888.332031 442.320312 L 875.820312 442.320312 Z M 875.820312 404.792969 " fill-opacity="1" fill-rule="nonzero"/><path fill="#696867" d="M 888.332031 442.320312 L 900.839844 442.320312 L 900.839844 479.851562 L 888.332031 479.851562 Z M 888.332031 442.320312 " fill-opacity="1" fill-rule="nonzero"/><path fill="#696867" d="M 813.273438 392.28125 L 825.78125 392.28125 L 825.78125 404.792969 L 813.273438 404.792969 Z M 813.273438 392.28125 " fill-opacity="1" fill-rule="nonzero"/><path fill="#696867" d="M 838.292969 404.792969 L 850.800781 404.792969 L 850.800781 417.300781 L 838.292969 417.300781 Z M 838.292969 404.792969 " fill-opacity="1" fill-rule="nonzero"/><path fill="#696867" d="M 800.761719 379.773438 L 813.273438 379.773438 L 813.273438 392.28125 L 800.761719 392.28125 Z M 800.761719 379.773438 " fill-opacity="1" fill-rule="nonzero"/><path fill="#696867" d="M 863.3125 404.792969 L 875.820312 404.792969 L 875.820312 417.300781 L 863.3125 417.300781 Z M 863.3125 404.792969 " fill-opacity="1" fill-rule="nonzero"/><path fill="#696867" d="M 850.800781 417.300781 L 863.3125 417.300781 L 863.3125 429.8125 L 850.800781 429.8125 Z M 850.800781 417.300781 " fill-opacity="1" fill-rule="nonzero"/><path fill="#696867" d="M 863.3125 442.320312 L 875.820312 442.320312 L 875.820312 454.832031 L 863.3125 454.832031 Z M 863.3125 442.320312 " fill-opacity="1" fill-rule="nonzero"/><path fill="#696867" d="M 938.371094 454.832031 L 975.898438 454.832031 L 975.898438 467.339844 L 938.371094 467.339844 Z M 938.371094 454.832031 " fill-opacity="1" fill-rule="nonzero"/><path fill="#696867" d="M 975.898438 467.339844 L 1000.917969 467.339844 L 1000.917969 479.851562 L 975.898438 479.851562 Z M 975.898438 467.339844 " fill-opacity="1" fill-rule="nonzero"/><path fill="#696867" d="M 963.390625 479.851562 L 975.898438 479.851562 L 975.898438 492.359375 L 963.390625 492.359375 Z M 963.390625 479.851562 " fill-opacity="1" fill-rule="nonzero"/><path fill="#696867" d="M 1000.917969 479.851562 L 1013.429688 479.851562 L 1013.429688 492.359375 L 1000.917969 492.359375 Z M 1000.917969 479.851562 " fill-opacity="1" fill-rule="nonzero"/><path fill="#696867" d="M 1013.429688 492.359375 L 1025.9375 492.359375 L 1025.9375 517.378906 L 1013.429688 517.378906 Z M 1013.429688 492.359375 " fill-opacity="1" fill-rule="nonzero"/><path fill="#696867" d="M 1025.9375 517.378906 L 1038.449219 517.378906 L 1038.449219 529.890625 L 1025.9375 529.890625 Z M 1025.9375 517.378906 " fill-opacity="1" fill-rule="nonzero"/><path fill="#696867" d="M 625.625 329.734375 L 650.644531 329.734375 L 650.644531 317.222656 L 613.117188 317.222656 L 613.117188 342.242188 L 625.625 342.242188 Z M 625.625 329.734375 " fill-opacity="1" fill-rule="nonzero"/><path fill="#696867" d="M 525.546875 379.773438 L 525.546875 392.28125 L 538.058594 392.28125 L 538.058594 379.773438 L 563.078125 379.773438 L 563.078125 367.261719 L 525.546875 367.261719 Z M 525.546875 379.773438 " fill-opacity="1" fill-rule="nonzero"/><path fill="#696867" d="M 550.566406 392.28125 L 563.078125 392.28125 L 563.078125 404.792969 L 550.566406 404.792969 Z M 550.566406 392.28125 " fill-opacity="1" fill-rule="nonzero"/><path fill="#696867" d="M 550.566406 429.8125 L 563.078125 429.8125 L 563.078125 442.320312 L 550.566406 442.320312 Z M 550.566406 429.8125 " fill-opacity="1" fill-rule="nonzero"/><path fill="#696867" d="M 525.546875 454.832031 L 550.566406 454.832031 L 550.566406 467.339844 L 525.546875 467.339844 Z M 525.546875 454.832031 " fill-opacity="1" fill-rule="nonzero"/><path fill="#696867" d="M 550.566406 467.339844 L 563.078125 467.339844 L 563.078125 479.851562 L 550.566406 479.851562 Z M 550.566406 467.339844 " fill-opacity="1" fill-rule="nonzero"/><path fill="#696867" d="M 488.019531 442.320312 L 525.546875 442.320312 L 525.546875 454.832031 L 488.019531 454.832031 Z M 488.019531 442.320312 " fill-opacity="1" fill-rule="nonzero"/><path fill="#696867" d="M 625.625 442.320312 L 663.15625 442.320312 L 663.15625 454.832031 L 625.625 454.832031 Z M 625.625 442.320312 " fill-opacity="1" fill-rule="nonzero"/><path fill="#696867" d="M 663.15625 454.832031 L 688.175781 454.832031 L 688.175781 467.339844 L 663.15625 467.339844 Z M 663.15625 454.832031 " fill-opacity="1" fill-rule="nonzero"/><path fill="#696867" d="M 688.175781 467.339844 L 700.683594 467.339844 L 700.683594 479.851562 L 688.175781 479.851562 Z M 688.175781 467.339844 " fill-opacity="1" fill-rule="nonzero"/><path fill="#696867" d="M 775.742188 379.773438 L 800.761719 379.773438 L 800.761719 392.28125 L 775.742188 392.28125 Z M 775.742188 379.773438 " fill-opacity="1" fill-rule="nonzero"/><path fill="#696867" d="M 650.644531 329.734375 L 663.15625 329.734375 L 663.15625 354.753906 L 650.644531 354.753906 Z M 650.644531 329.734375 " fill-opacity="1" fill-rule="nonzero"/><path fill="#696867" d="M 638.136719 354.753906 L 650.644531 354.753906 L 650.644531 367.261719 L 638.136719 367.261719 Z M 638.136719 354.753906 " fill-opacity="1" fill-rule="nonzero"/><path fill="#696867" d="M 675.664062 367.261719 L 700.683594 367.261719 L 700.683594 379.773438 L 675.664062 379.773438 Z M 675.664062 367.261719 " fill-opacity="1" fill-rule="nonzero"/><path fill="#696867" d="M 663.15625 379.773438 L 675.664062 379.773438 L 675.664062 392.28125 L 663.15625 392.28125 Z M 663.15625 379.773438 " fill-opacity="1" fill-rule="nonzero"/><path fill="#696867" d="M 875.820312 479.851562 L 888.332031 479.851562 L 888.332031 492.359375 L 875.820312 492.359375 Z M 875.820312 479.851562 " fill-opacity="1" fill-rule="nonzero"/><path fill="#696867" d="M 788.253906 429.8125 L 800.761719 429.8125 L 800.761719 454.832031 L 788.253906 454.832031 Z M 788.253906 429.8125 " fill-opacity="1" fill-rule="nonzero"/><path fill="#696867" d="M 800.761719 454.832031 L 813.273438 454.832031 L 813.273438 467.339844 L 800.761719 467.339844 Z M 800.761719 454.832031 " fill-opacity="1" fill-rule="nonzero"/><path fill="#696867" d="M 738.214844 317.222656 L 750.722656 317.222656 L 750.722656 329.734375 L 738.214844 329.734375 Z M 738.214844 317.222656 " fill-opacity="1" fill-rule="nonzero"/><path fill="#696867" d="M 700.683594 479.851562 L 713.195312 479.851562 L 713.195312 492.359375 L 700.683594 492.359375 Z M 700.683594 479.851562 " fill-opacity="1" fill-rule="nonzero"/><path fill="#696867" d="M 713.195312 492.359375 L 725.703125 492.359375 L 725.703125 504.871094 L 713.195312 504.871094 Z M 713.195312 492.359375 " fill-opacity="1" fill-rule="nonzero"/></svg>